<?xml version="1.0" encoding="UTF-8" standalone="no"?>
<svg
   width="24"
   height="24"
   viewBox="0 0 24 24"
   version="1.1"
   id="svg4"
   sodipodi:docname="ic_function.svg"
   inkscape:version="1.1 (c68e22c387, 2021-05-23)"
   xmlns:inkscape="http://www.inkscape.org/namespaces/inkscape"
   xmlns:sodipodi="http://sodipodi.sourceforge.net/DTD/sodipodi-0.dtd"
   xmlns="http://www.w3.org/2000/svg"
   xmlns:svg="http://www.w3.org/2000/svg">
  <defs
     id="defs8">
    <rect
       x="350.59761"
       y="-96.89243"
       width="30.59761"
       height="122.13546"
       id="rect112281" />
  </defs>
  <sodipodi:namedview
     id="namedview6"
     pagecolor="#ffffff"
     bordercolor="#111111"
     borderopacity="1"
     inkscape:pageshadow="0"
     inkscape:pageopacity="0"
     inkscape:pagecheckerboard="1"
     showgrid="false"
     inkscape:current-layer="text1773" />
  <g
     aria-label="f(x)"
     id="text1773"
     style="font-size:13.8941px;line-height:1.25;font-family:'Latin Modern Math';-inkscape-font-specification:'Latin Modern Math';fill:#909090;stroke-width:0.347354">
    <g
       id="g141488"
       transform="matrix(1.208069,0,0,1.208069,0.74313465,-1.315271)">
      <path
         d="m 6.0085783,6.3620845 c 0,-0.5140817 -0.5140817,-0.972587 -1.250469,-0.972587 -0.972587,0 -2.1535856,0.7363873 -2.1535856,2.2091619 V 9.1964806 H 1.5068898 v 0.430718 h 1.0976339 v 4.5016874 c 0,0.625235 -0.1528351,0.625235 -1.0837398,0.625235 v 0.430717 l 1.5839274,-0.04168 c 0.5557641,0 1.2087868,0 1.7645508,0.04168 V 14.754121 H 4.577486 c -1.0281634,0 -1.0559516,-0.152835 -1.0559516,-0.653023 V 9.6271976 H 5.1054618 V 9.1964806 H 3.4798521 V 7.5847653 c 0,-1.2226808 0.6669168,-1.8895976 1.2782572,-1.8895976 0.041682,0 0.2500938,0 0.4585053,0.097259 -0.1667292,0.055576 -0.416823,0.2361997 -0.416823,0.5835522 0,0.3195643 0.2223056,0.5974463 0.5974463,0.5974463 0.4029289,0 0.6113404,-0.277882 0.6113404,-0.6113407 z"
         id="path822" />
      <path
         d="m 14.876679,15.184838 v -0.430717 c -0.750282,0 -1.000375,-0.02779 -1.31994,-0.430717 L 11.69493,11.919725 c 0.416823,-0.527977 0.944799,-1.208788 1.278257,-1.570035 0.430717,-0.5001874 1.000375,-0.7085993 1.653398,-0.7224934 V 9.1964795 c -0.361247,0.027788 -0.77807,0.041682 -1.139316,0.041682 -0.416823,0 -1.15321,-0.027788 -1.333834,-0.041682 v 0.4307171 c 0.291776,0.027788 0.402929,0.208411 0.402929,0.4307174 0,0.222306 -0.138941,0.402929 -0.208411,0.486294 l -0.861435,1.083739 -1.083739,-1.403304 c -0.125047,-0.138941 -0.125047,-0.166729 -0.125047,-0.2500944 0,-0.208411 0.208411,-0.3334579 0.486293,-0.347352 V 9.1964795 l -1.500563,0.041682 c -0.2917764,0 -0.9447984,-0.013894 -1.3199393,-0.041682 v 0.4307171 c 0.972587,0 0.9864809,0.013894 1.6395043,0.8475404 l 1.375516,1.79234 c -0.653023,0.833646 -0.653023,0.861434 -1.3060461,1.653398 -0.6669172,0.805858 -1.4866692,0.833646 -1.7784452,0.833646 v 0.430717 c 0.361247,-0.02779 0.791964,-0.04168 1.153211,-0.04168 l 1.3199393,0.04168 v -0.430717 c -0.30567,-0.04168 -0.402929,-0.222306 -0.402929,-0.430717 0,-0.30567 0.402929,-0.764176 1.250469,-1.764551 l 1.055952,1.38941 c 0.111153,0.152834 0.291776,0.37514 0.291776,0.458505 0,0.125047 -0.125047,0.333459 -0.500188,0.347353 v 0.430717 l 1.500563,-0.04168 c 0.375141,0 0.917011,0.01389 1.333834,0.04168 z"
         id="path826" />
      <g
         id="g141481">
        <path
           d="m 8.8310284,16.50488 c 0,-0.03133 -0.02779,-0.06266 -0.05558,-0.08355 -1.4449861,-0.814592 -2.403679,-2.90329 -2.403679,-4.574248 v -0.87725 c 0,-1.6709585 0.9586929,-3.7596564 2.403679,-4.5742485 0.02779,-0.020887 0.05558,-0.052217 0.05558,-0.083548 0,-0.052217 -0.06947,-0.1044349 -0.1389413,-0.1044349 -0.027788,0 -0.055576,0.010443 -0.083365,0.020887 -1.528351,0.8668096 -2.9872316,2.9555075 -2.9872316,4.7413444 v 0.877252 c 0,1.785837 1.4588806,3.874534 2.9872316,4.741344 0.027788,0.01044 0.055576,0.02089 0.083365,0.02089 0.06947,0 0.1389413,-0.05222 0.1389413,-0.104435 z"
           id="path824"
           style="stroke-width:0.301148" />
        <path
           d="m 17.12924,11.89216 v -0.877253 c 0,-1.7858372 -1.45888,-3.8745351 -2.987231,-4.7413447 -0.02779,-0.010443 -0.05558,-0.020887 -0.08337,-0.020887 -0.06947,0 -0.138941,0.052218 -0.138941,0.1044349 0,0.03133 0.02779,0.062661 0.05558,0.083548 1.444986,0.8145921 2.403679,2.90329 2.403679,4.5742498 v 0.877253 c 0,1.670958 -0.958693,3.759656 -2.403679,4.574248 -0.02779,0.02089 -0.05558,0.05222 -0.05558,0.08355 0,0.05222 0.06947,0.104435 0.138941,0.104435 0.02779,0 0.05558,-0.01044 0.08337,-0.02089 1.528351,-0.86681 2.987231,-2.955507 2.987231,-4.741344 z"
           id="path828"
           style="stroke-width:0.301148" />
      </g>
    </g>
  </g>
  <text
     xml:space="preserve"
     id="text112279"
     style="line-height:1;font-family:sans-serif;font-size:40px;white-space:pre;shape-inside:url(#rect112281)" />
  <text
     xml:space="preserve"
     style="font-size:40px;line-height:1;font-family:sans-serif"
     x="3.1872511"
     y="12.079681"
     id="text129621"><tspan
       sodipodi:role="line"
       id="tspan129619"></tspan></text>
</svg>
