<?xml version="1.0" encoding="UTF-8" standalone="no"?>
<svg
   width="24"
   height="24"
   viewBox="0 0 24 24"
   version="1.1"
   id="svg4"
   sodipodi:docname="ic_point.svg"
   inkscape:version="1.1 (c68e22c387, 2021-05-23)"
   xmlns:inkscape="http://www.inkscape.org/namespaces/inkscape"
   xmlns:sodipodi="http://sodipodi.sourceforge.net/DTD/sodipodi-0.dtd"
   xmlns="http://www.w3.org/2000/svg"
   xmlns:svg="http://www.w3.org/2000/svg">
  <defs
     id="defs8" />
  <sodipodi:namedview
     id="namedview6"
     pagecolor="#ffffff"
     bordercolor="#111111"
     borderopacity="1"
     inkscape:pageshadow="0"
     inkscape:pageopacity="0"
     inkscape:pagecheckerboard="1"
     showgrid="false"
     inkscape:current-layer="svg4" />
  <g
     aria-label="(x,y)"
     id="text1773"
     style="font-size:11.5001px;line-height:1.25;font-family:'Latin Modern Math';-inkscape-font-specification:'Latin Modern Math';fill:#909090;stroke-width:0.287503">
    <path
       d="m 3.6739294,17.612049 c 0,-0.0345 -0.023,-0.069 -0.046,-0.092 C 2.4319186,16.62304 1.6384117,14.32302 1.6384117,12.483004 v -0.966008 c 0,-1.8400165 0.7935069,-4.1400365 1.9895173,-5.0370443 0.023,-0.023 0.046,-0.0575 0.046,-0.092001 0,-0.0575 -0.057501,-0.115001 -0.115001,-0.115001 -0.023,0 -0.046,0.0115 -0.069001,0.023 -1.265011,0.9545083 -2.4725215,3.2545283 -2.4725215,5.2210459 v 0.966008 c 0,1.966517 1.2075105,4.266537 2.4725215,5.221045 0.023,0.0115 0.046,0.023 0.069001,0.023 0.0575,0 0.115001,-0.0575 0.115001,-0.115001 z"
       id="path984" />
    <path
       d="m 10.263486,14.875025 v -0.356503 c -0.6210051,0 -0.828007,-0.023 -1.0925093,-0.356503 L 7.6299633,12.172501 C 7.9749663,11.735497 8.4119701,11.171993 8.6879725,10.87299 9.0444756,10.458986 9.5159797,10.286485 10.056484,10.274985 V 9.9184816 c -0.2990021,0.023 -0.6440052,0.0345 -0.9430078,0.0345 -0.345003,0 -0.9545083,-0.023 -1.1040096,-0.0345 v 0.3565034 c 0.2415021,0.023 0.3335029,0.172501 0.3335029,0.356503 0,0.184001 -0.115001,0.333503 -0.1725015,0.402503 L 7.4574618,11.930999 6.560454,10.769489 C 6.4569531,10.654488 6.4569531,10.631488 6.4569531,10.562487 c 0,-0.172501 0.1725015,-0.276002 0.4025035,-0.287502 V 9.9184816 l -1.2420108,0.0345 c -0.2415021,0 -0.7820068,-0.0115 -1.0925095,-0.0345 v 0.3565034 c 0.805007,0 0.8165071,0.0115 1.3570118,0.701506 L 7.020458,12.460004 C 6.4799533,13.15001 6.4799533,13.17301 5.9394486,13.828516 5.3874438,14.495521 4.7089379,14.518522 4.4674358,14.518522 v 0.356503 c 0.2990026,-0.023 0.6555057,-0.0345 0.9545083,-0.0345 l 1.0925095,0.0345 v -0.356503 c -0.2530022,-0.0345 -0.3335029,-0.184002 -0.3335029,-0.356503 0,-0.253003 0.3335029,-0.632506 1.035009,-1.460513 l 0.8740076,1.15001 c 0.092001,0.126501 0.2415021,0.310503 0.2415021,0.379503 0,0.103501 -0.1035009,0.276003 -0.4140036,0.287503 v 0.356503 l 1.2420108,-0.0345 c 0.3105027,0 0.7590067,0.0115 1.1040094,0.0345 z"
       id="path986" />
    <path
       d="m 12.736006,14.863525 c 0,-0.759007 -0.287503,-1.207511 -0.736006,-1.207511 -0.379504,0 -0.609506,0.287503 -0.609506,0.609505 0,0.310503 0.230002,0.609506 0.609506,0.609506 0.138001,0 0.287502,-0.046 0.402503,-0.149502 0.0345,-0.023 0.0575,-0.0345 0.0575,-0.0345 0,0 0.023,0.0115 0.023,0.172502 0,0.851007 -0.402504,1.541013 -0.782007,1.920516 -0.126501,0.126502 -0.126501,0.149502 -0.126501,0.184002 0,0.0805 0.0575,0.126501 0.115001,0.126501 0.126501,0 1.046509,-0.885508 1.046509,-2.231019 z"
       id="path988" />
    <path
       d="M 19.440564,10.274985 V 9.9184816 c -0.264503,0.023 -0.598005,0.0345 -0.862508,0.0345 l -1.000509,-0.0345 v 0.3565034 c 0.356504,0.0115 0.540505,0.207002 0.540505,0.494504 0,0.115001 -0.0115,0.138001 -0.069,0.276002 l -1.161511,2.829025 -1.276511,-3.093527 c -0.046,-0.115001 -0.069,-0.161001 -0.069,-0.207002 0,-0.299002 0.425503,-0.299002 0.644005,-0.299002 V 9.9184816 l -1.253511,0.0345 c -0.310502,0 -0.770506,-0.0115 -1.115509,-0.0345 v 0.3565034 c 0.552005,0 0.770506,0 0.931508,0.402503 l 1.725015,4.197537 -0.287503,0.678506 c -0.253002,0.632505 -0.575005,1.426012 -1.311011,1.426012 -0.0575,0 -0.322003,0 -0.540505,-0.207002 0.356503,-0.046 0.448504,-0.299002 0.448504,-0.483004 0,-0.299002 -0.218502,-0.483004 -0.483004,-0.483004 -0.230002,0 -0.483004,0.149501 -0.483004,0.494504 0,0.517505 0.483004,0.931508 1.058009,0.931508 0.724506,0 1.19601,-0.655505 1.472013,-1.311011 l 2.024017,-4.910543 c 0.299003,-0.724506 0.885508,-0.736006 1.06951,-0.736006 z"
       id="path990" />
    <path
       d="m 22.982594,12.483004 v -0.966008 c 0,-1.9665176 -1.207511,-4.2665376 -2.472522,-5.2210459 -0.023,-0.0115 -0.046,-0.023 -0.069,-0.023 -0.0575,0 -0.115001,0.0575 -0.115001,0.115001 0,0.0345 0.023,0.069001 0.046,0.092001 1.19601,0.8970078 1.989517,3.1970278 1.989517,5.0370443 v 0.966008 c 0,1.840016 -0.793507,4.140036 -1.989517,5.037044 -0.023,0.023 -0.046,0.0575 -0.046,0.092 0,0.0575 0.0575,0.115001 0.115001,0.115001 0.023,0 0.046,-0.0115 0.069,-0.023 1.265011,-0.954508 2.472522,-3.254528 2.472522,-5.221045 z"
       id="path992" />
  </g>
</svg>
