<?xml version="1.0" encoding="UTF-8" standalone="no"?>
<svg
   width="24"
   height="24"
   viewBox="0 0 24 24"
   version="1.1"
   id="svg4"
   sodipodi:docname="ic_slider.svg"
   inkscape:version="1.1 (c68e22c387, 2021-05-23)"
   xmlns:inkscape="http://www.inkscape.org/namespaces/inkscape"
   xmlns:sodipodi="http://sodipodi.sourceforge.net/DTD/sodipodi-0.dtd"
   xmlns="http://www.w3.org/2000/svg"
   xmlns:svg="http://www.w3.org/2000/svg">
  <defs
     id="defs8" />
  <sodipodi:namedview
     id="namedview6"
     pagecolor="#ffffff"
     bordercolor="#111111"
     borderopacity="1"
     inkscape:pageshadow="0"
     inkscape:pageopacity="0"
     inkscape:pagecheckerboard="1"
     showgrid="false"
     inkscape:current-layer="svg4" />
  <g
     aria-label="[...]"
     id="text1773"
     style="font-size:14.1901px;line-height:1.25;font-family:'Latin Modern Math';-inkscape-font-specification:'Latin Modern Math';fill:#909090;stroke-width:0.354752">
    <path
       d="m 5.7705499,18.811248 c 0,-0.156091 -0.1277109,-0.283802 -0.283802,-0.283802 H 4.3231597 V 5.4725546 h 1.1635882 c 0.1560911,0 0.283802,-0.1277109 0.283802,-0.283802 0,-0.1560911 -0.1277109,-0.283802 -0.283802,-0.283802 H 3.7555557 V 19.09505 h 1.7311922 c 0.1560911,0 0.283802,-0.127711 0.283802,-0.283802 z"
       id="path17786" />
    <path
       d="m 8.8072294,14.79545 c 0,-0.411513 -0.3405624,-0.752075 -0.7520752,-0.752075 -0.4115129,0 -0.7520753,0.340562 -0.7520753,0.752075 0,0.411513 0.3405624,0.752075 0.7520753,0.752075 0.4115128,0 0.7520752,-0.340562 0.7520752,-0.752075 z"
       id="path17788" />
    <path
       d="m 12.752075,14.79545 c 0,-0.411513 -0.340562,-0.752075 -0.752075,-0.752075 -0.411513,0 -0.752075,0.340562 -0.752075,0.752075 0,0.411513 0.340562,0.752075 0.752075,0.752075 0.411513,0 0.752075,-0.340562 0.752075,-0.752075 z"
       id="path17790" />
    <path
       d="m 16.696921,14.79545 c 0,-0.411513 -0.340562,-0.752075 -0.752075,-0.752075 -0.411513,0 -0.752076,0.340562 -0.752076,0.752075 0,0.411513 0.340563,0.752075 0.752076,0.752075 0.411513,0 0.752075,-0.340562 0.752075,-0.752075 z"
       id="path17792" />
    <path
       d="M 20.244444,19.09505 V 4.9049506 h -1.731192 c -0.156091,0 -0.283802,0.1277109 -0.283802,0.283802 0,0.1560911 0.127711,0.283802 0.283802,0.283802 H 19.67684 V 18.527446 h -1.163588 c -0.156091,0 -0.283802,0.127711 -0.283802,0.283802 0,0.156091 0.127711,0.283802 0.283802,0.283802 z"
       id="path17794" />
  </g>
</svg>
